<?xml version="1.0" encoding="UTF-8" standalone="no"?>
<svg
   xmlns:dc="http://purl.org/dc/elements/1.1/"
   xmlns:cc="http://creativecommons.org/ns#"
   xmlns:rdf="http://www.w3.org/1999/02/22-rdf-syntax-ns#"
   xmlns:svg="http://www.w3.org/2000/svg"
   xmlns="http://www.w3.org/2000/svg"
   viewBox="0 0 330.66666 428"
   height="428"
   width="330.66666"
   xml:space="preserve"
   id="svg2"
   version="1.1"><metadata
     id="metadata8"><rdf:RDF><cc:Work
         rdf:about=""><dc:format>image/svg+xml</dc:format><dc:type
           rdf:resource="http://purl.org/dc/dcmitype/StillImage" /></cc:Work></rdf:RDF></metadata><defs
     id="defs6"><clipPath
       id="clipPath28"
       clipPathUnits="userSpaceOnUse"><path
         id="path26"
         d="m 86,2827 v 116 h 2394 v -116 z" /></clipPath><clipPath
       id="clipPath50"
       clipPathUnits="userSpaceOnUse"><path
         id="path48"
         d="m 0,1013 v 116 h 2480 v -116 z" /></clipPath><clipPath
       id="clipPath68"
       clipPathUnits="userSpaceOnUse"><path
         id="path66"
         d="m 878.398,281.199 h 1435.2 v 115.199 h -1435.2 z" /></clipPath><clipPath
       id="clipPath84"
       clipPathUnits="userSpaceOnUse"><path
         id="path82"
         d="m 878.398,166 h 1214.4 v 115.199 h -1214.4 z" /></clipPath><clipPath
       id="clipPath100"
       clipPathUnits="userSpaceOnUse"><path
         id="path98"
         d="m 878.398,48.3984 h 1104 v 115.203 h -1104 z" /></clipPath><clipPath
       id="clipPath128"
       clipPathUnits="userSpaceOnUse"><path
         id="path126"
         d="m 79.1992,1702 h 1324.8 v 115.199 h -1324.8 z" /></clipPath><clipPath
       id="clipPath144"
       clipPathUnits="userSpaceOnUse"><path
         id="path142"
         d="m 79.1992,1586.8 h 1324.8 v 115.199 h -1324.8 z" /></clipPath><clipPath
       id="clipPath162"
       clipPathUnits="userSpaceOnUse"><path
         id="path160"
         d="m 861.602,1702 h 772.797 v 115.199 H 861.602 Z" /></clipPath><clipPath
       id="clipPath178"
       clipPathUnits="userSpaceOnUse"><path
         id="path176"
         d="m 861.602,1586.8 h 1324.8 v 115.199 h -1324.8 z" /></clipPath><clipPath
       id="clipPath196"
       clipPathUnits="userSpaceOnUse"><path
         id="path194"
         d="m 1629,1702 v 116 h 851 v -116 z" /></clipPath><clipPath
       id="clipPath212"
       clipPathUnits="userSpaceOnUse"><path
         id="path210"
         d="m 1629,1586 v 116 h 851 v -116 z" /></clipPath></defs><g
     transform="matrix(1.3333333,0,0,-1.3333333,0,428)"
     id="g10"><g
       transform="scale(0.1)"
       id="g12"><path
         id="path14"
         style="fill:#ffffff;fill-opacity:1;fill-rule:nonzero;stroke:none"
         d="M 0,0 H 2480 V 3210 H 0 Z" /><path
         id="path16"
         style="fill:none;stroke:#ffffff;stroke-width:2.4000001;stroke-linecap:butt;stroke-linejoin:miter;stroke-miterlimit:10;stroke-dasharray:none;stroke-opacity:1"
         d="m 12,2494 h 2424 v 705.602 H 12 Z" /><path
         id="path18"
         style="fill:none;stroke:#000000;stroke-width:2.4000001;stroke-linecap:butt;stroke-linejoin:miter;stroke-miterlimit:10;stroke-dasharray:88.8, 60;stroke-dashoffset:0;stroke-opacity:1"
         d="m 12,2494 h 2424 v 705.602 H 12 Z" /><path
         id="path20"
         style="fill:none;stroke:#000000;stroke-width:2.4000001;stroke-linecap:round;stroke-linejoin:round;stroke-miterlimit:10;stroke-dasharray:none;stroke-opacity:1"
         d="M 1222.8,3024.4 H 48 c -19.8789,0 -36,-16.12 -36,-36 v -220.8 c 0,-19.88 16.1211,-36 36,-36 h 2349.6 c 19.88,0 36,16.12 36,36 v 220.8 c 0,19.88 -16.12,36 -36,36 z" /><g
         id="g22"><g
           clip-path="url(#clipPath28)"
           id="g24"><path
             id="path30"
             style="fill:#ffffff;fill-opacity:1;fill-rule:nonzero;stroke:none"
             d="m 196.801,2827.6 h 2049.6 v 115.203 h -2049.6 z" /><g
             transform="scale(10)"
             id="g32"><text
               id="text36"
               style="font-variant:normal;font-weight:normal;font-size:10.07999992px;font-family:'Times New Roman';-inkscape-font-specification:Times-Roman;writing-mode:lr-tb;fill:#000000;fill-opacity:1;fill-rule:nonzero;stroke:none"
               transform="matrix(1,0,0,-1,19.6801,285.158)"><tspan
                 id="tspan34"
                 y="0"
                 x="0 5.0349598 8.3865604 13.42152 18.45648 23.49144 27.96192 30.759121 35.794079 40.829041 44.180641 49.215599 54.250561 58.721039 62.072639 64.869843 69.9048 74.939758 79.974716 84.445198 87.796799 90.594002 95.62896 98.426163 101.22336 104.02056 109.05552 114.09048 119.12544 123.04152 127.512 132.54697 137.01744 144.85464 149.32512 151.84007 155.75616 160.79112 165.2616 170.29655 174.76704 179.802 184.27248 188.18855 193.22353 197.694 202.16447">product_property_definition_schema.shape_aspect</tspan></text>
</g></g></g><path
         id="path38"
         style="fill:none;stroke:#ffffff;stroke-width:2.4000001;stroke-linecap:butt;stroke-linejoin:miter;stroke-miterlimit:10;stroke-dasharray:none;stroke-opacity:1"
         d="M 2.39844,677.199 H 2474.3984 v 705.602 H 2.39844 Z" /><path
         id="path40"
         style="fill:none;stroke:#000000;stroke-width:2.4000001;stroke-linecap:butt;stroke-linejoin:miter;stroke-miterlimit:10;stroke-dasharray:88.8, 60;stroke-dashoffset:0;stroke-opacity:1"
         d="M 2.39844,677.199 H 2474.3984 v 705.602 H 2.39844 Z" /><path
         id="path42"
         style="fill:none;stroke:#000000;stroke-width:2.4000001;stroke-linecap:round;stroke-linejoin:round;stroke-miterlimit:10;stroke-dasharray:none;stroke-opacity:1"
         d="M 1237.2,1207.6 H 38.3984 c -19.8789,0 -35.99996,-16.12 -35.99996,-36 V 950.801 c 0,-19.879 16.12106,-36 35.99996,-36 H 2436 c 19.88,0 36,16.121 36,36 V 1171.6 c 0,19.88 -16.12,36 -36,36 z" /><g
         id="g44"><g
           clip-path="url(#clipPath50)"
           id="g46"><path
             id="path52"
             style="fill:#ffffff;fill-opacity:1;fill-rule:nonzero;stroke:none"
             d="m 88.8008,1013.2 h 2301.6 v 115.199 h -2301.6 z" /><g
             transform="scale(10)"
             id="g54"><text
               id="text58"
               style="font-variant:normal;font-weight:normal;font-size:10.07999992px;font-family:'Times New Roman';-inkscape-font-specification:Times-Roman;writing-mode:lr-tb;fill:#000000;fill-opacity:1;fill-rule:nonzero;stroke:none"
               transform="matrix(1,0,0,-1,8.88008,103.717)"><tspan
                 id="tspan56"
                 y="0"
                 x="0 5.03544 8.3875198 13.42296 18.458401 23.493839 27.9648 30.76248 35.79792 40.833359 44.18544 49.220879 54.256321 58.72728 62.079361 64.877037 69.912483 74.947922 79.98336 84.454323 87.806396 90.60408 95.639519 98.437202 101.23488 104.03256 109.068 114.10344 119.13888 123.05544 127.5264 132.56184 137.03281 144.87048 149.34145 151.85687 156.89232 160.2444 165.27985 170.31528 174.78624 178.13832 180.936 185.97144 191.00688 196.04231 200.51328 203.86536 206.66304 211.69849 214.49615 217.29384 220.09152 225.12695">product_property_definition_schema.property_definition</tspan></text>
</g></g></g><path
         id="path60"
         style="fill:none;stroke:#000000;stroke-width:2.4000001;stroke-linecap:butt;stroke-linejoin:miter;stroke-miterlimit:10;stroke-dasharray:none;stroke-opacity:1"
         d="m 940.801,2.80078 h 588 v 448.801 h -588 z" /><g
         id="g62"><g
           clip-path="url(#clipPath68)"
           id="g64"><path
             id="path70"
             style="fill:#ffffff;fill-opacity:1;fill-rule:nonzero;stroke:none"
             d="m 988.801,281.199 h 436.801 V 396.398 H 988.801 Z" /><g
             transform="scale(10)"
             id="g72"><text
               id="text76"
               style="font-variant:normal;font-weight:normal;font-size:10.07999992px;font-family:'Times New Roman';-inkscape-font-specification:Times-Roman;writing-mode:lr-tb;fill:#000000;fill-opacity:1;fill-rule:nonzero;stroke:none"
               transform="matrix(1,0,0,-1,98.8801,30.5174)"><tspan
                 id="tspan74"
                 y="0"
                 x="0 3.9727199 6.82656 10.2348 15.3264 19.853519 22.707359 27.79896 31.207199 35.734322 38.588161">structural_</tspan></text>
</g></g></g><g
         id="g78"><g
           clip-path="url(#clipPath84)"
           id="g80"><path
             id="path86"
             style="fill:#ffffff;fill-opacity:1;fill-rule:nonzero;stroke:none"
             d="m 988.801,166 h 400.801 V 281.199 H 988.801 Z" /><g
             transform="scale(10)"
             id="g88"><text
               id="text92"
               style="font-variant:normal;font-weight:normal;font-size:10.07999992px;font-family:'Times New Roman';-inkscape-font-specification:Times-Roman;writing-mode:lr-tb;fill:#000000;fill-opacity:1;fill-rule:nonzero;stroke:none"
               transform="matrix(1,0,0,-1,98.8801,18.9975)"><tspan
                 id="tspan90"
                 y="0"
                 x="0 3.3311999 7.78128 11.67696 16.691521 21.706079 26.72064 30.61632 35.066399">response_</tspan></text>
</g></g></g><g
         id="g94"><g
           clip-path="url(#clipPath100)"
           id="g96"><path
             id="path102"
             style="fill:#ffffff;fill-opacity:1;fill-rule:nonzero;stroke:none"
             d="m 988.801,48.3984 h 338.398 v 115.199 H 988.801 Z" /><g
             transform="scale(10)"
             id="g104"><text
               id="text108"
               style="font-variant:normal;font-weight:normal;font-size:10.07999992px;font-family:'Times New Roman';-inkscape-font-specification:Times-Roman;writing-mode:lr-tb;fill:#000000;fill-opacity:1;fill-rule:nonzero;stroke:none"
               transform="matrix(1,0,0,-1,98.8801,7.23776)"><tspan
                 id="tspan106"
                 y="0"
                 x="0 5.0011201 8.3188801 13.32 18.321119 22.757759 26.07552 28.838881">property</tspan></text>
</g></g></g><path
         id="path110"
         style="fill:none;stroke:#000000;stroke-width:16.79999924;stroke-linecap:round;stroke-linejoin:round;stroke-miterlimit:10;stroke-dasharray:none;stroke-opacity:1"
         d="m 1236,559.602 v 0" /><path
         id="path112"
         style="fill:none;stroke:#000000;stroke-width:16.79999924;stroke-linecap:round;stroke-linejoin:round;stroke-miterlimit:10;stroke-dasharray:none;stroke-opacity:1"
         d="M 1236,677.199 V 559.602" /><path
         id="path114"
         style="fill:none;stroke:#000000;stroke-width:16.79999924;stroke-linecap:round;stroke-linejoin:round;stroke-miterlimit:10;stroke-dasharray:none;stroke-opacity:1"
         d="m 1236,490 v 69.602" /><path
         id="path116"
         style="fill:#ffffff;fill-opacity:1;fill-rule:evenodd;stroke:none"
         d="m 1270.8,492.398 c 0,20.543 -16.66,37.204 -37.2,37.204 -20.54,0 -37.2,-16.661 -37.2,-37.204 0,-20.543 16.66,-37.199 37.2,-37.199 20.54,0 37.2,16.656 37.2,37.199" /><path
         id="path118"
         style="fill:none;stroke:#000000;stroke-width:2.4000001;stroke-linecap:round;stroke-linejoin:round;stroke-miterlimit:10;stroke-dasharray:none;stroke-opacity:1"
         d="m 1270.8,492.398 c 0,20.543 -16.66,37.204 -37.2,37.204 -20.54,0 -37.2,-16.661 -37.2,-37.204 0,-20.543 16.66,-37.199 37.2,-37.199 20.54,0 37.2,16.656 37.2,37.199 z" /><path
         id="path120"
         style="fill:none;stroke:#000000;stroke-width:2.4000001;stroke-linecap:butt;stroke-linejoin:miter;stroke-miterlimit:10;stroke-dasharray:none;stroke-opacity:1"
         d="m 144,1476.4 h 588 v 441.602 H 144 Z" /><g
         id="g122"><g
           clip-path="url(#clipPath128)"
           id="g124"><path
             id="path130"
             style="fill:#ffffff;fill-opacity:1;fill-rule:nonzero;stroke:none"
             d="M 189.602,1702 H 660 v 115.199 H 189.602 Z" /><g
             transform="scale(10)"
             id="g132"><text
               id="text136"
               style="font-variant:normal;font-weight:normal;font-size:10.07999992px;font-family:'Times New Roman';-inkscape-font-specification:Times-Roman;writing-mode:lr-tb;fill:#000000;fill-opacity:1;fill-rule:nonzero;stroke:none"
               transform="matrix(1,0,0,-1,18.9602,172.598)"><tspan
                 id="tspan134"
                 y="0"
                 x="0 3.3019199 7.7227201 12.14352 17.128799 24.916321 29.9016 34.886879 39.307678 42.055199">fea_model_</tspan></text>
</g></g></g><g
         id="g138"><g
           clip-path="url(#clipPath144)"
           id="g140"><path
             id="path146"
             style="fill:#ffffff;fill-opacity:1;fill-rule:nonzero;stroke:none"
             d="M 189.602,1586.8 H 583.2 v 115.199 H 189.602 Z" /><g
             transform="scale(10)"
             id="g148"><text
               id="text152"
               style="font-variant:normal;font-weight:normal;font-size:10.07999992px;font-family:'Times New Roman';-inkscape-font-specification:Times-Roman;writing-mode:lr-tb;fill:#000000;fill-opacity:1;fill-rule:nonzero;stroke:none"
               transform="matrix(1,0,0,-1,18.9602,161.078)"><tspan
                 id="tspan150"
                 y="0"
                 x="0 5.05584 9.5472002 12.91968 15.73776 20.7936 23.611679 26.42976 29.247841 34.30368">definition</tspan></text>
</g></g></g><path
         id="path154"
         style="fill:none;stroke:#000000;stroke-width:2.4000001;stroke-linecap:butt;stroke-linejoin:miter;stroke-miterlimit:10;stroke-dasharray:none;stroke-opacity:1"
         d="m 926.398,1476.4 h 588 v 441.602 h -588 z" /><g
         id="g156"><g
           clip-path="url(#clipPath162)"
           id="g158"><path
             id="path164"
             style="fill:#ffffff;fill-opacity:1;fill-rule:nonzero;stroke:none"
             d="m 972,1702 h 244.801 v 115.199 H 972 Z" /><g
             transform="scale(10)"
             id="g166"><text
               id="text170"
               style="font-variant:normal;font-weight:normal;font-size:10.07999992px;font-family:'Times New Roman';-inkscape-font-specification:Times-Roman;writing-mode:lr-tb;fill:#000000;fill-opacity:1;fill-rule:nonzero;stroke:none"
               transform="matrix(1,0,0,-1,97.2,172.598)"><tspan
                 id="tspan168"
                 y="0"
                 x="0 5.0088 10.0176 15.0264 19.47072">node_</tspan></text>
</g></g></g><g
         id="g172"><g
           clip-path="url(#clipPath178)"
           id="g174"><path
             id="path180"
             style="fill:#ffffff;fill-opacity:1;fill-rule:nonzero;stroke:none"
             d="m 972,1586.8 h 393.602 v 115.199 H 972 Z" /><g
             transform="scale(10)"
             id="g182"><text
               id="text186"
               style="font-variant:normal;font-weight:normal;font-size:10.07999992px;font-family:'Times New Roman';-inkscape-font-specification:Times-Roman;writing-mode:lr-tb;fill:#000000;fill-opacity:1;fill-rule:nonzero;stroke:none"
               transform="matrix(1,0,0,-1,97.2,161.078)"><tspan
                 id="tspan184"
                 y="0"
                 x="0 5.05584 9.5472002 12.91968 15.73776 20.7936 23.611679 26.42976 29.247841 34.30368">definition</tspan></text>
</g></g></g><path
         id="path188"
         style="fill:none;stroke:#000000;stroke-width:2.4000001;stroke-linecap:butt;stroke-linejoin:miter;stroke-miterlimit:10;stroke-dasharray:none;stroke-opacity:1"
         d="m 1692,1476.4 h 588 v 441.602 h -588 z" /><g
         id="g190"><g
           clip-path="url(#clipPath196)"
           id="g192"><path
             id="path198"
             style="fill:#ffffff;fill-opacity:1;fill-rule:nonzero;stroke:none"
             d="m 1740,1702 h 369.602 v 115.199 H 1740 Z" /><g
             transform="scale(10)"
             id="g200"><text
               id="text204"
               style="font-variant:normal;font-weight:normal;font-size:10.07999992px;font-family:'Times New Roman';-inkscape-font-specification:Times-Roman;writing-mode:lr-tb;fill:#000000;fill-opacity:1;fill-rule:nonzero;stroke:none"
               transform="matrix(1,0,0,-1,174,172.598)"><tspan
                 id="tspan202"
                 y="0"
                 x="0 4.47648 7.2796798 11.75616 19.59936 24.07584 29.1168 31.92">element_</tspan></text>
</g></g></g><g
         id="g206"><g
           clip-path="url(#clipPath212)"
           id="g208"><path
             id="path214"
             style="fill:#ffffff;fill-opacity:1;fill-rule:nonzero;stroke:none"
             d="m 1740,1586.8 h 393.602 v 115.199 H 1740 Z" /><g
             transform="scale(10)"
             id="g216"><text
               id="text220"
               style="font-variant:normal;font-weight:normal;font-size:10.07999992px;font-family:'Times New Roman';-inkscape-font-specification:Times-Roman;writing-mode:lr-tb;fill:#000000;fill-opacity:1;fill-rule:nonzero;stroke:none"
               transform="matrix(1,0,0,-1,174,161.078)"><tspan
                 id="tspan218"
                 y="0"
                 x="0 5.05584 9.5472002 12.91968 15.73776 20.7936 23.611679 26.42976 29.247841 34.30368">definition</tspan></text>
</g></g></g><path
         id="path222"
         style="fill:none;stroke:#000000;stroke-width:16.79999924;stroke-linecap:round;stroke-linejoin:round;stroke-miterlimit:10;stroke-dasharray:none;stroke-opacity:1"
         d="M 436.801,2261.2 H 1987.2" /><path
         id="path224"
         style="fill:none;stroke:#000000;stroke-width:16.79999924;stroke-linecap:round;stroke-linejoin:round;stroke-miterlimit:10;stroke-dasharray:none;stroke-opacity:1"
         d="M 1219.2,2494 V 2261.2" /><path
         id="path226"
         style="fill:none;stroke:#000000;stroke-width:16.79999924;stroke-linecap:round;stroke-linejoin:round;stroke-miterlimit:10;stroke-dasharray:none;stroke-opacity:1"
         d="m 1219.2,1958.8 v 302.4" /><path
         id="path228"
         style="fill:#ffffff;fill-opacity:1;fill-rule:evenodd;stroke:none"
         d="m 1254,1961.2 c 0,20.54 -16.66,37.2 -37.2,37.2 -20.54,0 -37.2,-16.66 -37.2,-37.2 0,-20.54 16.66,-37.2 37.2,-37.2 20.54,0 37.2,16.66 37.2,37.2" /><path
         id="path230"
         style="fill:none;stroke:#000000;stroke-width:2.4000001;stroke-linecap:round;stroke-linejoin:round;stroke-miterlimit:10;stroke-dasharray:none;stroke-opacity:1"
         d="m 1254,1961.2 c 0,20.54 -16.66,37.2 -37.2,37.2 -20.54,0 -37.2,-16.66 -37.2,-37.2 0,-20.54 16.66,-37.2 37.2,-37.2 20.54,0 37.2,16.66 37.2,37.2 z" /><path
         id="path232"
         style="fill:none;stroke:#000000;stroke-width:16.79999924;stroke-linecap:round;stroke-linejoin:round;stroke-miterlimit:10;stroke-dasharray:none;stroke-opacity:1"
         d="m 1987.2,1958.8 v 302.4" /><path
         id="path234"
         style="fill:#ffffff;fill-opacity:1;fill-rule:evenodd;stroke:none"
         d="m 2022,1961.2 c 0,20.54 -16.66,37.2 -37.2,37.2 -20.54,0 -37.2,-16.66 -37.2,-37.2 0,-20.54 16.66,-37.2 37.2,-37.2 20.54,0 37.2,16.66 37.2,37.2" /><path
         id="path236"
         style="fill:none;stroke:#000000;stroke-width:2.4000001;stroke-linecap:round;stroke-linejoin:round;stroke-miterlimit:10;stroke-dasharray:none;stroke-opacity:1"
         d="m 2022,1961.2 c 0,20.54 -16.66,37.2 -37.2,37.2 -20.54,0 -37.2,-16.66 -37.2,-37.2 0,-20.54 16.66,-37.2 37.2,-37.2 20.54,0 37.2,16.66 37.2,37.2 z" /><path
         id="path238"
         style="fill:none;stroke:#000000;stroke-width:16.79999924;stroke-linecap:round;stroke-linejoin:round;stroke-miterlimit:10;stroke-dasharray:none;stroke-opacity:1"
         d="m 436.801,1958.8 v 302.4" /><path
         id="path240"
         style="fill:#ffffff;fill-opacity:1;fill-rule:evenodd;stroke:none"
         d="m 471.602,1961.2 c 0,20.54 -16.661,37.2 -37.204,37.2 -20.543,0 -37.199,-16.66 -37.199,-37.2 0,-20.54 16.656,-37.2 37.199,-37.2 20.543,0 37.204,16.66 37.204,37.2" /><path
         id="path242"
         style="fill:none;stroke:#000000;stroke-width:2.4000001;stroke-linecap:round;stroke-linejoin:round;stroke-miterlimit:10;stroke-dasharray:none;stroke-opacity:1"
         d="m 471.602,1961.2 c 0,20.54 -16.661,37.2 -37.204,37.2 -20.543,0 -37.199,-16.66 -37.199,-37.2 0,-20.54 16.656,-37.2 37.199,-37.2 20.543,0 37.204,16.66 37.204,37.2 z" /></g></g></svg>